<svg width="336" height="152" viewBox="0 0 336 152" fill="none" xmlns="http://www.w3.org/2000/svg">
<path fill-rule="evenodd" clip-rule="evenodd" d="M316.551 70.9093C319.312 75.1782 324.299 77.9309 329.79 78.2396C329.914 78.2396 330.793 77.2564 330.731 77.3127C331.482 76.5546 332.205 75.8246 332.926 75.0665C333.647 74.3075 334.4 73.5494 335.121 72.7913C335.247 72.6506 335.875 71.8362 336 71.8362C330.511 71.5275 325.523 68.7748 322.762 64.505C322.856 64.6457 319.876 67.3985 319.626 67.679C319.343 67.9596 316.364 70.6287 316.551 70.9093Z" fill="#FFBC1F"/>
<path fill-rule="evenodd" clip-rule="evenodd" d="M42 102.307C44.0884 103.168 46.2064 104.005 48.2948 104.866C48.4668 104.94 51.0417 100.511 51.1564 100.56C49.0671 99.6984 46.95 98.8616 44.8616 98.0009C44.6896 97.9262 42.086 102.331 42 102.307Z" fill="#7FE3F0"/>
<path fill-rule="evenodd" clip-rule="evenodd" d="M103.657 12.438C104.962 13.0124 106.286 13.5699 107.592 14.1443C107.698 14.1936 109.308 11.241 109.38 11.2736C108.074 10.6992 106.75 10.1416 105.445 9.5673C105.338 9.51895 103.711 12.4548 103.657 12.438Z" fill="#FF8164"/>
<path fill-rule="evenodd" clip-rule="evenodd" d="M7.1211 148.619C10.1102 149.426 13.0983 150.204 16.1173 151.012C16.0274 150.983 16.1173 148.452 16.1173 148.202C16.1173 147.951 16.2371 145.448 16.0574 145.392C13.0683 144.585 10.0802 143.807 7.06121 143C7.15105 143.028 7.06121 145.559 7.06121 145.809C7.03126 146.088 6.91148 148.591 7.1211 148.619Z" fill="#FF8164"/>
<path fill-rule="evenodd" clip-rule="evenodd" d="M142.803 13.0761C142.131 15.1061 142.938 17.2446 144.91 18.6037C145.224 18.8205 146.749 18.6757 147.174 18.6757C147.712 18.6939 148.227 18.6939 148.765 18.7121C148.878 18.7121 149.348 18.6576 149.438 18.7121C147.466 17.3348 146.636 15.2145 147.331 13.1853C147.241 13.4385 142.916 12.7865 142.803 13.0761Z" fill="#30D6AF"/>
<path fill-rule="evenodd" clip-rule="evenodd" d="M56.7605 54.881C58.1193 57.5356 61.2134 59.0774 64.4352 58.735C64.6241 58.7064 65.1294 56.8795 65.1927 56.6793C65.256 56.48 65.7296 54.6245 65.8869 54.6245C62.6661 54.9668 59.6036 53.4259 58.2132 50.7704C58.3714 51.0565 57.5823 52.5125 57.4557 52.8262C57.3291 53.1971 56.5717 54.5101 56.7605 54.881Z" fill="#AF8EFF"/>
<path fill-rule="evenodd" clip-rule="evenodd" d="M297.643 140.141C295.672 142.117 295.401 144.645 296.895 146.846C296.998 146.996 299.206 146.846 299.479 146.846C299.75 146.846 301.959 146.696 302.062 146.821C300.566 144.62 300.872 142.092 302.809 140.116C302.674 140.266 300.532 140.116 300.226 140.116C299.852 140.116 297.847 139.941 297.643 140.141Z" fill="#FF9B90"/>
<path fill-rule="evenodd" clip-rule="evenodd" d="M103.512 35.8956C102.044 37.0336 100.546 38.1473 99.0781 39.2853C99.17 39.2125 102.503 41.7311 102.656 41.6098C104.124 40.4718 105.622 39.3581 107.09 38.2201C106.967 38.2929 103.665 35.7743 103.512 35.8956Z" fill="#1F87FE"/>
<path fill-rule="evenodd" clip-rule="evenodd" d="M33.6946 24.4501C32.2269 25.5881 30.7285 26.7018 29.2607 27.8398C29.3527 27.767 32.6855 30.2856 32.8387 30.1643C34.3064 29.0263 35.8048 27.9126 37.2726 26.7746C37.15 26.8474 33.8478 24.3288 33.6946 24.4501Z" fill="#1F87FE"/>
<path fill-rule="evenodd" clip-rule="evenodd" d="M79.7444 125.005C76.618 125.543 74.0655 127.636 73.004 130.579C72.8603 130.947 76.6755 132.701 76.5614 133.012C77.6508 130.07 80.1746 127.976 83.3009 127.439C83.0144 127.495 81.8101 126.391 81.5227 126.193C81.2362 125.967 80.1458 124.92 79.7444 125.005Z" fill="#7FE3F0"/>
<path fill-rule="evenodd" clip-rule="evenodd" d="M4.02134 65.7319C2.8985 67.7018 1.77661 69.6708 0.653774 71.6398C0.472333 71.9633 4.26358 74.0404 4.11254 74.3107C5.23443 72.3417 6.35727 70.3719 7.48011 68.4029C7.6625 68.0785 3.8399 66.0014 4.02134 65.7319Z" fill="#7FE3F0"/>
<path fill-rule="evenodd" clip-rule="evenodd" d="M245.688 36.7744C245.208 39.4147 246.36 41.9841 248.885 43.8936C249.013 44.0117 251.54 42.9975 251.828 42.9031C252.084 42.8093 254.609 41.7959 254.737 41.866C252.212 39.9801 251.029 37.3878 251.54 34.7468C251.507 34.9357 248.918 35.6192 248.597 35.7373C248.214 35.8791 245.752 36.4917 245.688 36.7744Z" fill="#7FE3F0"/>
<path fill-rule="evenodd" clip-rule="evenodd" d="M192.991 73.0092C195.81 73.9984 198.63 74.9614 201.449 75.9505C201.353 75.9251 201.769 73.6181 201.769 73.4149C201.801 73.187 202.249 70.9562 202.026 70.8792C199.207 69.8908 196.387 68.9271 193.568 67.9387C193.664 67.9641 193.247 70.2711 193.247 70.4743C193.247 70.7022 192.767 72.933 192.991 73.0092Z" fill="#7FE3F0"/>
<path fill-rule="evenodd" clip-rule="evenodd" d="M260.461 23.3013H267.003C267.165 23.3013 267.263 18.7231 267.328 18.7231H260.786C260.656 18.7231 260.526 23.3013 260.461 23.3013Z" fill="#FF9B90"/>
<path fill-rule="evenodd" clip-rule="evenodd" d="M194.076 39.325H200.617C200.78 39.325 200.877 34.7468 200.943 34.7468H194.401C194.271 34.7468 194.14 39.325 194.076 39.325Z" fill="#FF9B90"/>
<path fill-rule="evenodd" clip-rule="evenodd" d="M267.277 112.457C264.086 111.353 260.893 110.248 257.701 109.142C258.005 109.25 255.522 115.36 255.927 115.512C259.12 116.617 262.312 117.722 265.504 118.827C265.2 118.719 267.708 112.587 267.277 112.457Z" fill="#1F87FE"/>
<mask id="mask0" mask-type="alpha" maskUnits="userSpaceOnUse" x="194" y="0" width="7" height="6">
<path fill-rule="evenodd" clip-rule="evenodd" d="M194.118 0.547333H200.519V5.8277H194.118V0.547333Z" fill="white"/>
</mask>
<g mask="url(#mask0)">
<path fill-rule="evenodd" clip-rule="evenodd" d="M200.491 2.35439C198.706 1.75175 196.921 1.1499 195.135 0.547256C195.305 0.605858 193.916 3.93742 194.143 4.02057L199.499 5.8277C199.329 5.76831 200.732 2.42566 200.491 2.35439Z" fill="#3F67F2"/>
</g>
<path fill-rule="evenodd" clip-rule="evenodd" d="M135.156 71.9321C132.375 71.611 129.593 71.2889 126.813 71C126.688 71 126.063 75.7905 126 75.7905C128.781 76.1116 131.562 76.4327 134.344 76.7226C134.469 76.7548 135.095 71.9321 135.156 71.9321Z" fill="#FFBC1F"/>
<path fill-rule="evenodd" clip-rule="evenodd" d="M319.977 23.3013C320.792 25.1424 321.606 26.9843 322.422 28.8503C322.517 29.0739 324.335 29.4222 324.618 29.5219C324.931 29.6216 326.75 29.92 326.844 30.1686C326.028 28.3275 325.213 26.4856 324.398 24.6196C324.304 24.396 322.485 24.0477 322.203 23.948C321.889 23.849 320.071 23.5249 319.977 23.3013Z" fill="#7FE3F0"/>
</svg>
