<svg width="20" height="22" viewBox="0 0 20 22" fill="none" xmlns="http://www.w3.org/2000/svg">
<path fill-rule="evenodd" clip-rule="evenodd" d="M13 2C11.8954 2 11 2.89543 11 4C11 5.10457 11.8954 6 13 6C14.1046 6 15 5.10457 15 4C15 2.89543 14.1046 2 13 2ZM3.53513 6H3C1.34315 6 0 7.34315 0 9V19C0 20.6569 1.34315 22 3 22H17C18.6569 22 20 20.6569 20 19V9C20 7.34315 18.6569 6 17 6H16.4649C16.8052 5.41165 17 4.72857 17 4C17 1.79086 15.2091 0 13 0C11.8053 0 10.7329 0.523755 10 1.35418C9.26705 0.523755 8.19469 0 7 0C4.79086 0 3 1.79086 3 4C3 4.72857 3.19479 5.41165 3.53513 6ZM9 4C9 5.10457 8.10457 6 7 6C5.89543 6 5 5.10457 5 4C5 2.89543 5.89543 2 7 2C8.10457 2 9 2.89543 9 4ZM11 8H13H17C17.5523 8 18 8.44772 18 9V13H11V8ZM3 8C2.44772 8 2 8.44772 2 9V13H9V8H7H3ZM9 15H2V19C2 19.5523 2.44772 20 3 20H9V15ZM11 15H18V19C18 19.5523 17.5523 20 17 20H11V15Z" fill="url(#paint0_linear)"/>
<defs>
<linearGradient id="paint0_linear" x1="2.6742" y1="11" x2="26.645" y2="10.8191" gradientUnits="userSpaceOnUse">
<stop stop-color="#4966FF"/>
<stop offset="0.154799" stop-color="#7760FF"/>
<stop offset="0.36383" stop-color="#B149FF"/>
<stop offset="0.622369" stop-color="#E54FF2"/>
<stop offset="0.963406" stop-color="#FF206E"/>
</linearGradient>
</defs>
</svg>
