<svg width="20" height="22" viewBox="0 0 20 22" fill="none" xmlns="http://www.w3.org/2000/svg">
<path fill-rule="evenodd" clip-rule="evenodd" d="M9.35513 2.23571C9.72761 1.92143 10.2724 1.92143 10.6449 2.23571L17.6449 8.14196C17.8701 8.33196 18 8.61161 18 8.90625V18.6332C18 19.1855 17.5523 19.6332 17 19.6332H3C2.44772 19.6332 2 19.1855 2 18.6332V8.90625C2 8.61161 2.12994 8.33196 2.35513 8.14196L9.35513 2.23571ZM11.9346 0.707125C10.8172 -0.235709 9.18282 -0.235708 8.06539 0.707126L1.06539 6.61338C0.389813 7.18339 0 8.02233 0 8.90625V18.6332C0 20.2901 1.34315 21.6332 3 21.6332H17C18.6569 21.6332 20 20.2901 20 18.6332V8.90625C20 8.02233 19.6102 7.18339 18.9346 6.61338L11.9346 0.707125ZM8.75 11.6332C8.75 10.9428 9.30964 10.3832 10 10.3832C10.6904 10.3832 11.25 10.9428 11.25 11.6332C11.25 12.3236 10.6904 12.8832 10 12.8832C9.30964 12.8832 8.75 12.3236 8.75 11.6332ZM10 8.3832C8.20507 8.3832 6.75 9.83827 6.75 11.6332C6.75 13.4281 8.20507 14.8832 10 14.8832C11.7949 14.8832 13.25 13.4281 13.25 11.6332C13.25 9.83827 11.7949 8.3832 10 8.3832Z" fill="url(#paint0_linear)"/>
<defs>
<linearGradient id="paint0_linear" x1="2.6742" y1="10.8166" x2="26.6449" y2="10.6326" gradientUnits="userSpaceOnUse">
<stop stop-color="#4966FF"/>
<stop offset="0.154799" stop-color="#7760FF"/>
<stop offset="0.36383" stop-color="#B149FF"/>
<stop offset="0.622369" stop-color="#E54FF2"/>
<stop offset="0.963406" stop-color="#FF206E"/>
</linearGradient>
</defs>
</svg>
