<svg width="22" height="21" viewBox="0 0 22 21" fill="none" xmlns="http://www.w3.org/2000/svg">
<path fill-rule="evenodd" clip-rule="evenodd" d="M5.87695 3C5.87695 1.34315 7.2201 0 8.87695 0H12.2231C13.8799 0 15.2231 1.34315 15.2231 3V6.34611C15.2231 8.00297 13.8799 9.34611 12.2231 9.34611H8.87695C7.2201 9.34611 5.87695 8.00297 5.87695 6.34611V3ZM8.87695 2C8.32467 2 7.87695 2.44772 7.87695 3V6.34611C7.87695 6.8984 8.32467 7.34611 8.87695 7.34611H12.2231C12.7754 7.34611 13.2231 6.8984 13.2231 6.34611V3C13.2231 2.44771 12.7754 2 12.2231 2H8.87695ZM11.7539 14.6408C11.7539 12.9839 13.0971 11.6408 14.7539 11.6408H18.1C19.7569 11.6408 21.1 12.9839 21.1 14.6408V17.9869C21.1 19.6437 19.7569 20.9869 18.1 20.9869H14.7539C13.0971 20.9869 11.7539 19.6437 11.7539 17.9869V14.6408ZM14.7539 13.6408C14.2016 13.6408 13.7539 14.0885 13.7539 14.6408V17.9869C13.7539 18.5392 14.2016 18.9869 14.7539 18.9869H18.1C18.6523 18.9869 19.1 18.5392 19.1 17.9869V14.6408C19.1 14.0885 18.6523 13.6408 18.1 13.6408H14.7539ZM3 11.6408C1.34315 11.6408 0 12.9839 0 14.6408V17.9869C0 19.6437 1.34315 20.9869 3 20.9869H6.34611C8.00297 20.9869 9.34611 19.6437 9.34611 17.9869V14.6408C9.34611 12.9839 8.00297 11.6408 6.34611 11.6408H3ZM2 14.6408C2 14.0885 2.44771 13.6408 3 13.6408H6.34611C6.8984 13.6408 7.34611 14.0885 7.34611 14.6408V17.9869C7.34611 18.5392 6.8984 18.9869 6.34611 18.9869H3C2.44772 18.9869 2 18.5392 2 17.9869V14.6408Z" fill="url(#paint0_linear)"/>
<defs>
<linearGradient id="paint0_linear" x1="2.82128" y1="10.4934" x2="28.1102" y2="10.2823" gradientUnits="userSpaceOnUse">
<stop stop-color="#4966FF"/>
<stop offset="0.154799" stop-color="#7760FF"/>
<stop offset="0.36383" stop-color="#B149FF"/>
<stop offset="0.622369" stop-color="#E54FF2"/>
<stop offset="0.963406" stop-color="#FF206E"/>
</linearGradient>
</defs>
</svg>
