<svg width="150" height="150" viewBox="0 0 150 150" fill="none" xmlns="http://www.w3.org/2000/svg">
<path d="M75 150C116.421 150 150 116.421 150 75C150 33.5786 116.421 0 75 0C33.5786 0 0 33.5786 0 75C0 116.421 33.5786 150 75 150Z" fill="url(#paint0_linear_2630_2456)"/>
<path d="M120 146C120 148.209 118.209 150 116 150H34C31.7909 150 30 148.209 30 146V56.9955C30 54.7881 31.8153 53.0472 33.9538 52.4998C36.7137 51.7934 39.26 50.357 41.3084 48.3085C43.3569 46.26 44.7934 43.7137 45.4998 40.9538C46.0472 38.8153 47.7881 37 49.9955 37H99.9914C102.204 37 103.947 38.8236 104.494 40.9673C104.682 41.7007 104.922 42.4214 105.213 43.1238C106.018 45.0648 107.2 46.8268 108.691 48.308C110.172 49.7991 111.934 50.9816 113.875 51.787C114.578 52.0784 115.299 52.3184 116.032 52.5058C118.176 53.0533 120 54.7963 120 57.0089V146Z" fill="white"/>
<path d="M75 96C84.9411 96 93 87.9411 93 78C93 68.0589 84.9411 60 75 60C65.0589 60 57 68.0589 57 78C57 87.9411 65.0589 96 75 96Z" fill="#4D58F3"/>
<path d="M82.2762 85.2739C81.6904 85.8596 80.7406 85.8596 80.1549 85.2739L75.9122 81.0312C75.3264 80.4454 74.3767 80.4454 73.7909 81.0312L69.5483 85.2739C68.9625 85.8596 68.0127 85.8596 67.4269 85.2739C66.8412 84.6881 66.8412 83.7383 67.4269 83.1525L71.6696 78.9099C72.2554 78.3241 72.2554 77.3744 71.6696 76.7886L67.4269 72.5459C66.8412 71.9602 66.8412 71.0104 67.4269 70.4246C68.0127 69.8388 68.9625 69.8388 69.5483 70.4246L73.7909 74.6673C74.3767 75.253 75.3264 75.253 75.9122 74.6673L80.1549 70.4246C80.7406 69.8388 81.6904 69.8388 82.2762 70.4246C82.862 71.0104 82.862 71.9602 82.2762 72.5459L78.0335 76.7886C77.4478 77.3744 77.4478 78.3241 78.0335 78.9099L82.2762 83.1525C82.862 83.7383 82.862 84.6881 82.2762 85.2739Z" fill="white"/>
<path d="M88 108H62C60.3431 108 59 109.343 59 111C59 112.657 60.3431 114 62 114H88C89.6569 114 91 112.657 91 111C91 109.343 89.6569 108 88 108Z" fill="#DFEAFB"/>
<path d="M97 120H53C51.3431 120 50 121.343 50 123C50 124.657 51.3431 126 53 126H97C98.6569 126 100 124.657 100 123C100 121.343 98.6569 120 97 120Z" fill="#DFEAFB"/>
<defs>
<linearGradient id="paint0_linear_2630_2456" x1="75" y1="0" x2="75" y2="150" gradientUnits="userSpaceOnUse">
<stop stop-color="#E3ECFA"/>
<stop offset="1" stop-color="#DAE5FF" stop-opacity="0"/>
</linearGradient>
</defs>
</svg>
