<svg width="19" height="17" viewBox="0 0 19 17" fill="none" xmlns="http://www.w3.org/2000/svg">
<circle cx="7" cy="4" r="3" stroke="#737DA5" stroke-width="2"/>
<path d="M12.5864 1.45325C13.4353 1.98312 14.0001 2.92561 14.0001 4.00001C14.0001 5.07442 13.4353 6.01691 12.5864 6.54678" stroke="#737DA5" stroke-width="2" stroke-linecap="round" stroke-linejoin="round"/>
<path d="M7 10C4.37405 10 2.14211 11.6869 1.32874 14.0362C0.967368 15.08 1.89543 16 3 16H11C12.1046 16 13.0326 15.08 12.6713 14.0362C11.8579 11.6869 9.62595 10 7 10Z" stroke="#737DA5" stroke-width="2"/>
<path d="M14 10.3414C15.7169 10.9482 17.0752 12.3144 17.6713 14.0363C18.0327 15.0801 17.1046 16 16 16H15.5" stroke="#737DA5" stroke-width="2" stroke-linecap="round" stroke-linejoin="round"/>
</svg>
