<svg width="19" height="18" viewBox="0 0 19 18" fill="none" xmlns="http://www.w3.org/2000/svg">
<path d="M7.08333 9L8.86111 10.7778L12.4167 7.22222M17.75 9C17.75 10.0506 17.5431 11.0909 17.141 12.0615C16.739 13.0321 16.1497 13.914 15.4069 14.6569C14.664 15.3997 13.7821 15.989 12.8115 16.391C11.8409 16.7931 10.8006 17 9.75 17C8.69943 17 7.65914 16.7931 6.68853 16.391C5.71793 15.989 4.83601 15.3997 4.09315 14.6569C3.35028 13.914 2.761 13.0321 2.35896 12.0615C1.95693 11.0909 1.75 10.0506 1.75 9C1.75 6.87827 2.59285 4.84344 4.09315 3.34315C5.59344 1.84285 7.62827 1 9.75 1C11.8717 1 13.9066 1.84285 15.4069 3.34315C16.9071 4.84344 17.75 6.87827 17.75 9Z" stroke="#4D58F3" stroke-width="2" stroke-linecap="round" stroke-linejoin="round"/>
</svg>
