<svg width="18" height="18" viewBox="0 0 18 18" fill="none" xmlns="http://www.w3.org/2000/svg">
<circle cx="9" cy="9" r="9" fill="#FFE75B"/>
<path fill-rule="evenodd" clip-rule="evenodd" d="M6.87027 7.91413C6.8046 8.00702 6.67258 8.02179 6.58801 7.94569L4.73572 6.27885C4.51935 6.08414 4.17699 6.25993 4.20914 6.54923L4.68102 10.7956C4.69884 10.9559 4.8344 11.0773 4.99577 11.0773H7.75798H7.82985H10.3775H10.4493H13.2115C13.3729 11.0773 13.5085 10.9559 13.5263 10.7956L13.9982 6.54923C14.0303 6.25993 13.688 6.08414 13.4716 6.27885L11.5247 8.03082C11.4383 8.10857 11.303 8.09121 11.239 7.99417L9.35864 5.14236C9.23591 4.95622 8.96437 4.95181 8.83566 5.13388L6.87027 7.91413ZM4.9829 11.7861C4.84298 11.7861 4.72956 11.8995 4.72956 12.0394V12.8657C4.72956 13.0056 4.84298 13.119 4.9829 13.119H13.1881C13.3281 13.119 13.4415 13.0056 13.4415 12.8657V12.0394C13.4415 11.8995 13.3281 11.7861 13.1881 11.7861H4.9829Z" fill="#495377"/>
</svg>
