<svg width="10" height="10" viewBox="0 0 10 10" fill="none" xmlns="http://www.w3.org/2000/svg">
<path d="M4.26624 0.848109C4.41886 0.383964 5.08174 0.383964 5.23385 0.848109L6.00662 3.20361C6.03988 3.30465 6.10452 3.39269 6.19133 3.45514C6.27813 3.51759 6.38264 3.55127 6.48992 3.55134H8.99034C9.4833 3.55134 9.68781 4.17625 9.28947 4.46351L7.26675 5.91894C7.17986 5.98151 7.1152 6.06973 7.08203 6.17094C7.04885 6.27215 7.04887 6.38117 7.08208 6.48237L7.85434 8.83787C8.00696 9.30252 7.47024 9.68855 7.07191 9.40129L5.04918 7.94586C4.96225 7.88326 4.85753 7.84954 4.75005 7.84954C4.64257 7.84954 4.53785 7.88326 4.45091 7.94586L2.42819 9.40129C2.02985 9.68855 1.49314 9.30201 1.64576 8.83787L2.41801 6.48237C2.45122 6.38117 2.45124 6.27215 2.41807 6.17094C2.3849 6.06973 2.32023 5.98151 2.23334 5.91894L0.21062 4.46351C-0.188227 4.17625 0.0173018 3.55134 0.509756 3.55134H3.00967C3.11704 3.55137 3.22166 3.51775 3.30856 3.45529C3.39547 3.39283 3.46019 3.30473 3.49348 3.20361L4.26624 0.848109Z" fill="white"/>
</svg>
