<svg width="34" height="34" viewBox="0 0 34 34" fill="none" xmlns="http://www.w3.org/2000/svg">
<circle opacity="0.72" cx="17" cy="17" r="17" fill="#E4E8F5"/>
<path d="M25.945 13.9902C26.7583 13.4215 27.4425 12.7118 28 11.8946V11.8937C27.2558 12.2146 26.4642 12.4279 25.6375 12.5313C26.4875 12.0316 27.1367 11.2464 27.4417 10.3003C26.6492 10.7655 25.7742 11.0937 24.8417 11.2775C24.0892 10.4882 23.0167 10 21.8467 10C19.5767 10 17.7492 11.8142 17.7492 14.0377C17.7492 14.3577 17.7767 14.6654 17.8442 14.9584C14.4358 14.7943 11.4192 13.1861 9.3925 10.7352C9.03917 11.3399 8.83083 12.0316 8.83083 12.7758C8.83083 14.1739 9.56167 15.4129 10.6525 16.1309C9.99333 16.1186 9.3475 15.9298 8.8 15.6336V15.6779C8.8 17.6398 10.2208 19.2693 12.085 19.6451C11.7508 19.7354 11.3875 19.7781 11.01 19.7781C10.7475 19.7781 10.4825 19.7633 10.2342 19.7091C10.765 21.3075 12.2733 22.4833 14.065 22.5218C12.67 23.5959 10.8983 24.2433 8.98083 24.2433C8.645 24.2433 8.3225 24.2285 8 24.1883C9.81667 25.3411 11.9683 26 14.29 26C21.5258 26 26.2417 20.0562 25.945 13.9902Z" fill="#111833"/>
</svg>
