<svg width="7" height="11" viewBox="0 0 7 11" fill="none" xmlns="http://www.w3.org/2000/svg">
<path d="M0.335927 8.85742C0.111976 8.32306 0 7.70392 0 7C0 6.29608 0.111976 5.67951 0.335927 5.15029C0.565932 4.61593 0.874622 4.19717 1.262 3.89403C1.65543 3.59088 2.0882 3.36737 2.56031 3.22351C3.03243 3.0745 3.54086 3 4.0856 3C4.83009 3 5.50195 3.16442 6.10117 3.49326C6.3917 3.65254 6.61262 3.80411 6.76394 3.94798C6.92131 4.09184 7 4.25369 7 4.43353C7 4.6185 6.91224 4.79062 6.73671 4.9499C6.57933 5.08349 6.38867 5.15029 6.16472 5.15029C5.95893 5.15029 5.71379 5.0501 5.42931 4.84971C5.00562 4.56198 4.55772 4.41811 4.0856 4.41811C3.36533 4.41811 2.80545 4.64162 2.40597 5.08863C2.03675 5.49968 1.85214 6.1368 1.85214 7C1.85214 7.8632 2.03675 8.49775 2.40597 8.90366C2.80545 9.35581 3.36533 9.58189 4.0856 9.58189C4.53956 9.58189 4.98746 9.43545 5.42931 9.14258C5.7259 8.9422 5.97103 8.842 6.16472 8.842C6.38262 8.842 6.57328 8.91137 6.73671 9.0501C6.91224 9.20938 7 9.3815 7 9.56647C7 9.74631 6.91829 9.91073 6.75486 10.0597C6.59749 10.2036 6.37959 10.3526 6.10117 10.5067C5.49589 10.8356 4.82404 11 4.0856 11C3.54086 11 3.03243 10.9281 2.56031 10.7842C2.0882 10.6352 1.65543 10.4091 1.262 10.106C0.874622 9.80282 0.565932 9.38664 0.335927 8.85742Z" fill="white"/>
<path opacity="0.5" d="M1.3501 1H5.8501" stroke="white" stroke-width="1.5" stroke-linecap="round" stroke-linejoin="round"/>
</svg>
