<svg width="10" height="10" viewBox="0 0 10 10" fill="none" xmlns="http://www.w3.org/2000/svg">
<path d="M4.22409 0.105352C4.89856 -0.0360816 5.59499 -0.0364221 6.26959 0.104352C6.31453 0.400995 6.42575 0.683696 6.59498 0.931441C6.76422 1.17919 6.98711 1.3856 7.24709 1.53535C7.50687 1.68562 7.79719 1.77538 8.09644 1.79798C8.3957 1.82057 8.6962 1.77541 8.97559 1.66585C9.43474 2.17988 9.78253 2.78337 9.99709 3.43835C9.76277 3.62564 9.57365 3.86333 9.44381 4.13375C9.31397 4.40417 9.24673 4.70037 9.24709 5.00035C9.24709 5.63235 9.54009 6.19585 9.99809 6.56235C9.78226 7.21679 9.43404 7.8198 8.97509 8.33385C8.69577 8.22437 8.39536 8.17925 8.0962 8.20185C7.79703 8.22444 7.50681 8.31416 7.24709 8.46435C6.98732 8.61405 6.7646 8.82034 6.59546 9.0679C6.42633 9.31546 6.31512 9.59793 6.27009 9.89435C5.5957 10.0361 4.89926 10.0368 4.22459 9.89635C4.17987 9.59944 4.06875 9.31644 3.8995 9.06842C3.73026 8.82041 3.50726 8.61375 3.24709 8.46385C2.98728 8.31367 2.69694 8.22399 2.39769 8.20148C2.09843 8.17897 1.79795 8.22422 1.51859 8.33385C1.05939 7.81967 0.711596 7.21601 0.497094 6.56085C0.73129 6.37367 0.920323 6.13614 1.05016 5.86591C1.18 5.59567 1.24731 5.29966 1.24709 4.99985C1.24734 4.69979 1.17995 4.40354 1.04993 4.13311C0.919908 3.86268 0.730606 3.62504 0.496094 3.43785C0.711928 2.78341 1.06015 2.1804 1.51909 1.66635C1.79842 1.77583 2.09883 1.82095 2.39799 1.79836C2.69715 1.77576 2.98738 1.68604 3.24709 1.53585C3.50687 1.38615 3.72959 1.17986 3.89872 0.932305C4.06786 0.684746 4.17907 0.402272 4.22409 0.105852V0.105352ZM5.24709 6.50035C5.64492 6.50035 6.02645 6.34232 6.30775 6.06101C6.58906 5.77971 6.74709 5.39818 6.74709 5.00035C6.74709 4.60253 6.58906 4.221 6.30775 3.93969C6.02645 3.65839 5.64492 3.50035 5.24709 3.50035C4.84927 3.50035 4.46774 3.65839 4.18643 3.93969C3.90513 4.221 3.74709 4.60253 3.74709 5.00035C3.74709 5.39818 3.90513 5.77971 4.18643 6.06101C4.46774 6.34232 4.84927 6.50035 5.24709 6.50035Z" fill="#737DA5"/>
</svg>
