<svg width="18" height="18" viewBox="0 0 18 18" fill="none" xmlns="http://www.w3.org/2000/svg">
<circle cx="9" cy="9" r="9" fill="#566DF2"/>
<path d="M5.73583 12.0574C5.51188 11.5231 5.3999 10.9039 5.3999 10.2C5.3999 9.49609 5.51188 8.87952 5.73583 8.3503C5.96583 7.81594 6.27452 7.39719 6.6619 7.09404C7.05533 6.79089 7.4881 6.56739 7.96021 6.42352C8.43233 6.27451 8.94076 6.20001 9.48551 6.20001C10.23 6.20001 10.9018 6.36443 11.5011 6.69327C11.7916 6.85255 12.0125 7.00412 12.1638 7.14799C12.3212 7.29185 12.3999 7.4537 12.3999 7.63354C12.3999 7.81851 12.3121 7.99064 12.1366 8.14992C11.9792 8.28351 11.7886 8.3503 11.5646 8.3503C11.3588 8.3503 11.1137 8.25011 10.8292 8.04972C10.4055 7.76199 9.95762 7.61812 9.48551 7.61812C8.76523 7.61812 8.20535 7.84163 7.80587 8.28864C7.43665 8.69969 7.25204 9.33681 7.25204 10.2C7.25204 11.0632 7.43665 11.6978 7.80587 12.1037C8.20535 12.5558 8.76523 12.7819 9.48551 12.7819C9.93946 12.7819 10.3874 12.6355 10.8292 12.3426C11.1258 12.1422 11.3709 12.042 11.5646 12.042C11.7825 12.042 11.9732 12.1114 12.1366 12.2501C12.3121 12.4094 12.3999 12.5815 12.3999 12.7665C12.3999 12.9463 12.3182 13.1107 12.1548 13.2597C11.9974 13.4036 11.7795 13.5526 11.5011 13.7068C10.8958 14.0356 10.2239 14.2 9.48551 14.2C8.94076 14.2 8.43233 14.1281 7.96021 13.9842C7.4881 13.8352 7.05533 13.6091 6.6619 13.306C6.27452 13.0028 5.96583 12.5867 5.73583 12.0574Z" fill="white"/>
<path opacity="0.5" d="M6.75 4.20001H11.25" stroke="white" stroke-width="1.5" stroke-linecap="round" stroke-linejoin="round"/>
</svg>
