<svg width="16" height="18" viewBox="0 0 16 18" fill="none" xmlns="http://www.w3.org/2000/svg">
<path d="M12.3808 12.3806L8.845 15.9164C8.69037 16.0712 8.50675 16.194 8.30464 16.2778C8.10252 16.3616 7.88588 16.4047 7.66709 16.4047C7.4483 16.4047 7.23165 16.3616 7.02954 16.2778C6.82742 16.194 6.6438 16.0712 6.48917 15.9164L2.9525 12.3806C2.02019 11.4482 1.38528 10.2603 1.12808 8.96714C0.870869 7.67395 1.00291 6.33352 1.50751 5.11536C2.0121 3.89721 2.86658 2.85604 3.9629 2.12351C5.05922 1.39098 6.34814 1 7.66667 1C8.9852 1 10.2741 1.39098 11.3704 2.12351C12.4668 2.85604 13.3212 3.89721 13.8258 5.11536C14.3304 6.33352 14.4625 7.67395 14.2053 8.96714C13.9481 10.2603 13.3132 11.4482 12.3808 12.3806V12.3806Z" stroke="#A7AFCE" stroke-width="1.5" stroke-linecap="round" stroke-linejoin="round"/>
<path d="M10.1665 7.66644C10.1665 8.32948 9.90311 8.96537 9.43427 9.43421C8.96543 9.90305 8.32955 10.1664 7.6665 10.1664C7.00346 10.1664 6.36758 9.90305 5.89874 9.43421C5.4299 8.96537 5.1665 8.32948 5.1665 7.66644C5.1665 7.0034 5.4299 6.36752 5.89874 5.89868C6.36758 5.42983 7.00346 5.16644 7.6665 5.16644C8.32955 5.16644 8.96543 5.42983 9.43427 5.89868C9.90311 6.36752 10.1665 7.0034 10.1665 7.66644V7.66644Z" stroke="#A7AFCE" stroke-width="1.5" stroke-linecap="round" stroke-linejoin="round"/>
</svg>
