<svg width="22" height="22" viewBox="0 0 22 22" fill="none" xmlns="http://www.w3.org/2000/svg">
<circle cx="11" cy="11" r="10" stroke="#737DA5" stroke-width="2"/>
<path d="M10.0709 16.2444C9.83237 16.0059 9.71311 15.7181 9.71311 15.3811C9.71311 15.0441 9.83237 14.7563 10.0709 14.5178C10.3094 14.2793 10.5972 14.16 10.9342 14.16C11.2713 14.16 11.559 14.2793 11.7976 14.5178C12.0361 14.7563 12.1553 15.0441 12.1553 15.3811C12.1553 15.7181 12.0361 16.0059 11.7976 16.2444C11.559 16.483 11.2713 16.6022 10.9342 16.6022C10.5972 16.6022 10.3094 16.483 10.0709 16.2444ZM14.1309 8.41999C14.1309 8.81925 14.0713 9.15888 13.952 9.43888C13.8327 9.71888 13.6409 10.0326 13.3764 10.38L12.4431 11.6011C12.2305 11.8759 12.0827 12.1767 11.9998 12.5033C11.9324 12.7418 11.8287 12.9363 11.6887 13.0867C11.502 13.2837 11.2505 13.3822 10.9342 13.3822C10.6283 13.3822 10.3768 13.2785 10.1798 13.0711C10.019 12.9052 9.93866 12.6744 9.93866 12.3789C9.93866 12.13 9.98014 11.8993 10.0631 11.6867C10.1461 11.4689 10.2913 11.2278 10.4987 10.9633L11.6576 9.5011C11.9583 9.12258 12.1087 8.76221 12.1087 8.41999C12.1087 8.07258 11.9946 7.78481 11.7664 7.55666C11.5435 7.32332 11.2479 7.20666 10.8798 7.20666C10.4753 7.20666 10.1564 7.3311 9.92311 7.57999C9.76237 7.74592 9.63274 7.99221 9.53422 8.31888C9.472 8.51592 9.37866 8.68703 9.25422 8.83221C9.09348 8.99814 8.85755 9.0811 8.54644 9.0811C8.26644 9.0811 8.04088 8.99036 7.86977 8.80888C7.70903 8.64296 7.62866 8.40444 7.62866 8.09333C7.62866 7.81333 7.70385 7.50481 7.85422 7.16777C8.00977 6.82555 8.23274 6.51962 8.52311 6.24999C9.15051 5.67444 9.92829 5.38666 10.8564 5.38666C11.4631 5.38666 12.0127 5.50592 12.5053 5.74444C12.9979 5.97777 13.392 6.32777 13.6876 6.79444C13.9831 7.2611 14.1309 7.80295 14.1309 8.41999Z" fill="#737DA5"/>
</svg>
