<svg width="19" height="19" viewBox="0 0 19 19" fill="none" xmlns="http://www.w3.org/2000/svg">
<path d="M9.5 4.75C9.24805 4.75 9.00641 4.85009 8.82825 5.02825C8.65009 5.20641 8.55 5.44804 8.55 5.7V9.5C8.55 9.75195 8.65009 9.99359 8.82825 10.1717C9.00641 10.3499 9.24805 10.45 9.5 10.45C9.75196 10.45 9.99359 10.3499 10.1718 10.1717C10.3499 9.99359 10.45 9.75195 10.45 9.5V5.7C10.45 5.44804 10.3499 5.20641 10.1718 5.02825C9.99359 4.85009 9.75196 4.75 9.5 4.75ZM10.374 12.939C10.3532 12.8785 10.3245 12.821 10.2885 12.768L10.1745 12.6255C10.0409 12.4937 9.87127 12.4044 9.68698 12.3689C9.50269 12.3334 9.31201 12.3532 9.139 12.426C9.02388 12.4741 8.91784 12.5416 8.8255 12.6255C8.73746 12.7143 8.6678 12.8195 8.62052 12.9353C8.57324 13.051 8.54928 13.175 8.55 13.3C8.5515 13.4241 8.57732 13.5468 8.626 13.661C8.66867 13.7789 8.73674 13.886 8.82539 13.9746C8.91405 14.0633 9.02111 14.1313 9.139 14.174C9.25272 14.2243 9.37568 14.2502 9.5 14.2502C9.62433 14.2502 9.74729 14.2243 9.861 14.174C9.97889 14.1313 10.086 14.0633 10.1746 13.9746C10.2633 13.886 10.3313 13.7789 10.374 13.661C10.4227 13.5468 10.4485 13.4241 10.45 13.3C10.4547 13.2367 10.4547 13.1732 10.45 13.11C10.4336 13.0494 10.408 12.9917 10.374 12.939ZM9.5 0C7.62108 0 5.78435 0.557165 4.22209 1.60104C2.65982 2.64491 1.44218 4.12861 0.723149 5.86451C0.0041162 7.6004 -0.184015 9.51054 0.182544 11.3534C0.549104 13.1962 1.45389 14.8889 2.78249 16.2175C4.11109 17.5461 5.80383 18.4509 7.64665 18.8175C9.48946 19.184 11.3996 18.9959 13.1355 18.2769C14.8714 17.5578 16.3551 16.3402 17.399 14.7779C18.4428 13.2156 19 11.3789 19 9.5C19 8.25244 18.7543 7.0171 18.2769 5.86451C17.7994 4.71191 17.0997 3.66464 16.2175 2.78248C15.3354 1.90033 14.2881 1.20056 13.1355 0.723144C11.9829 0.245725 10.7476 0 9.5 0ZM9.5 17.1C7.99686 17.1 6.52748 16.6543 5.27767 15.8192C4.02786 14.9841 3.05375 13.7971 2.47852 12.4084C1.90329 11.0197 1.75279 9.49157 2.04604 8.01731C2.33928 6.54306 3.06311 5.18887 4.12599 4.12599C5.18887 3.06311 6.54306 2.33928 8.01732 2.04603C9.49157 1.75278 11.0197 1.90329 12.4084 2.47852C13.7971 3.05374 14.9841 4.02785 15.8192 5.27766C16.6543 6.52748 17.1 7.99686 17.1 9.5C17.1 11.5156 16.2993 13.4487 14.874 14.874C13.4487 16.2993 11.5156 17.1 9.5 17.1Z" fill="#737DA5"/>
</svg>
