<svg width="19" height="19" viewBox="0 0 19 19" fill="none" xmlns="http://www.w3.org/2000/svg">
<path d="M13.0277 10.1739C13.9637 9.4415 14.6469 8.43723 14.9822 7.30076C15.3176 6.16428 15.2884 4.95212 14.8987 3.83291C14.5091 2.71369 13.7784 1.74309 12.8082 1.05612C11.8381 0.369161 10.6768 0 9.48584 0C8.29491 0 7.13359 0.369161 6.16345 1.05612C5.19331 1.74309 4.46259 2.71369 4.07295 3.83291C3.68331 4.95212 3.65412 6.16428 3.98946 7.30076C4.32479 8.43723 5.00797 9.4415 5.94394 10.1739C4.34013 10.8129 2.94075 11.8728 1.89499 13.2405C0.849226 14.6083 0.19628 16.2326 0.00575854 17.9404C-0.00803236 18.0651 0.00300573 18.1912 0.0382423 18.3117C0.0734789 18.4321 0.132224 18.5445 0.211124 18.6423C0.370469 18.84 0.602234 18.9666 0.855434 18.9943C1.10863 19.022 1.36253 18.9485 1.56126 18.79C1.75999 18.6316 1.88729 18.4011 1.91514 18.1493C2.12478 16.2933 3.01465 14.5791 4.41473 13.3344C5.81482 12.0896 7.62696 11.4015 9.50494 11.4015C11.3829 11.4015 13.1951 12.0896 14.5951 13.3344C15.9952 14.5791 16.8851 16.2933 17.0947 18.1493C17.1207 18.3826 17.2326 18.598 17.4089 18.7541C17.5852 18.9101 17.8134 18.9957 18.0494 18.9943H18.1544C18.4047 18.9656 18.6334 18.8398 18.7908 18.6442C18.9482 18.4485 19.0214 18.199 18.9946 17.9499C18.8031 16.2373 18.1467 14.6087 17.0955 13.2389C16.0444 11.869 14.6382 10.8095 13.0277 10.1739ZM9.48584 9.49974C8.73056 9.49974 7.99224 9.27701 7.36425 8.8597C6.73626 8.44239 6.2468 7.84925 5.95776 7.15529C5.66873 6.46133 5.5931 5.69772 5.74045 4.96102C5.8878 4.22431 6.2515 3.54761 6.78557 3.01648C7.31963 2.48534 8.00007 2.12364 8.74084 1.9771C9.4816 1.83056 10.2494 1.90577 10.9472 2.19321C11.645 2.48066 12.2414 2.96744 12.661 3.59198C13.0806 4.21653 13.3046 4.9508 13.3046 5.70193C13.3046 6.70918 12.9023 7.67516 12.1861 8.38739C11.47 9.09962 10.4986 9.49974 9.48584 9.49974Z" fill="#737DA5"/>
</svg>
