<svg width="34" height="34" viewBox="0 0 34 34" fill="none" xmlns="http://www.w3.org/2000/svg">
<circle opacity="0.72" cx="17" cy="17" r="17" fill="#E4E8F5"/>
<g clip-path="url(#clip0)">
<path d="M17.0032 11.865C14.1674 11.865 11.8716 14.1633 11.8716 16.9967C11.8716 19.8325 14.1699 22.1283 17.0032 22.1283C19.8391 22.1283 22.1349 19.83 22.1349 16.9967C22.1349 14.1608 19.8366 11.865 17.0032 11.865ZM17.0032 20.3275C15.1624 20.3275 13.6724 18.8367 13.6724 16.9967C13.6724 15.1567 15.1632 13.6658 17.0032 13.6658C18.8432 13.6658 20.3341 15.1567 20.3341 16.9967C20.3349 18.8367 18.8441 20.3275 17.0032 20.3275Z" fill="#111833"/>
<path d="M21.123 7.0638C19.283 6.97797 14.7255 6.98213 12.8839 7.0638C11.2655 7.13963 9.83803 7.53046 8.6872 8.6813C6.76387 10.6046 7.0097 13.1963 7.0097 16.9971C7.0097 20.8871 6.79303 23.4188 8.6872 25.313C10.618 27.243 13.2472 26.9905 17.003 26.9905C20.8564 26.9905 22.1864 26.993 23.5489 26.4655C25.4014 25.7463 26.7997 24.0905 26.9364 21.1163C27.023 19.2755 27.018 14.7188 26.9364 12.8771C26.7714 9.3663 24.8872 7.23713 21.123 7.0638ZM24.0355 24.0405C22.7747 25.3013 21.0255 25.1888 16.9789 25.1888C12.8122 25.1888 11.1414 25.2505 9.9222 24.028C8.51803 22.6305 8.7722 20.3863 8.7722 16.9838C8.7722 12.3796 8.2997 9.0638 12.9205 8.82713C13.9822 8.78963 14.2947 8.77713 16.9672 8.77713L17.0047 8.80213C21.4455 8.80213 24.9297 8.33713 25.1389 12.9571C25.1864 14.0113 25.1972 14.328 25.1972 16.9963C25.1964 21.1146 25.2747 22.7955 24.0355 24.0405Z" fill="#111833"/>
<path d="M22.3383 12.8617C23.0006 12.8617 23.5375 12.3248 23.5375 11.6625C23.5375 11.0003 23.0006 10.4634 22.3383 10.4634C21.676 10.4634 21.1392 11.0003 21.1392 11.6625C21.1392 12.3248 21.676 12.8617 22.3383 12.8617Z" fill="#111833"/>
</g>
<defs>
<clipPath id="clip0">
<rect width="20" height="20" fill="white" transform="translate(7 7)"/>
</clipPath>
</defs>
</svg>
