<svg width="14" height="14" viewBox="0 0 14 14" fill="none" xmlns="http://www.w3.org/2000/svg">
<path d="M3.7021 12.3333L6.24276 12.96C6.35017 12.9867 6.46028 13 6.57039 13H9.28398C9.53504 13.0001 9.78118 12.9312 9.99477 12.8009C10.2084 12.6707 10.3809 12.4843 10.4932 12.2627L12.8575 7.596C12.9604 7.39272 13.009 7.16686 12.9986 6.93984C12.9882 6.71283 12.9192 6.4922 12.7981 6.29891C12.6771 6.10562 12.5079 5.94607 12.3068 5.83542C12.1057 5.72476 11.8793 5.66667 11.649 5.66667H8.43079V2.33333C8.43079 1.97971 8.28844 1.64057 8.03507 1.39052C7.7817 1.14048 7.43806 1 7.07973 1H7.01556C6.6778 1 6.40421 1.27 6.40421 1.60333C6.40421 2.07933 6.26167 2.54467 5.99349 2.94067L3.7021 6.33333V12.3333ZM3.7021 12.3333H2.35105C1.99273 12.3333 1.64909 12.1929 1.39571 11.9428C1.14234 11.6928 1 11.3536 1 11V7C1 6.64638 1.14234 6.30724 1.39571 6.05719C1.64909 5.80714 1.99273 5.66667 2.35105 5.66667H4.03987" stroke="#A7AFCE" stroke-width="1.4" stroke-linecap="round" stroke-linejoin="round"/>
</svg>
