<svg width="23" height="20" viewBox="0 0 23 20" fill="none" xmlns="http://www.w3.org/2000/svg">
<path fill-rule="evenodd" clip-rule="evenodd" d="M0.709938 4.93112C-0.931494 2.97969 0.455796 0 3.00576 0H15.7893C18.3392 0 19.7265 2.9797 18.0851 4.93112L12.7697 11.2503C12.6181 11.4305 12.535 11.6585 12.535 11.894V17C12.535 18.6569 11.1919 20 9.53502 20H9.26002C7.60317 20 6.26002 18.6569 6.26002 17V11.894C6.26002 11.6585 6.1769 11.4305 6.02529 11.2503L0.709938 4.93112ZM3.00576 2C2.15577 2 1.69334 2.99323 2.24048 3.6437L7.55584 9.96289C8.01065 10.5036 8.26002 11.1875 8.26002 11.894V17C8.26002 17.5523 8.70774 18 9.26002 18H9.53502C10.0873 18 10.535 17.5523 10.535 17V11.894C10.535 11.1875 10.7844 10.5036 11.2392 9.96289L16.5546 3.64371C17.1017 2.99323 16.6393 2 15.7893 2H3.00576ZM15.71 12.25C15.71 11.6977 16.1577 11.25 16.71 11.25H21.21C21.7623 11.25 22.21 11.6977 22.21 12.25C22.21 12.8023 21.7623 13.25 21.21 13.25H16.71C16.1577 13.25 15.71 12.8023 15.71 12.25ZM16.71 15.75C16.1577 15.75 15.71 16.1977 15.71 16.75C15.71 17.3023 16.1577 17.75 16.71 17.75H18.96C19.5123 17.75 19.96 17.3023 19.96 16.75C19.96 16.1977 19.5123 15.75 18.96 15.75H16.71Z" fill="url(#paint0_linear)"/>
<defs>
<linearGradient id="paint0_linear" x1="2.9697" y1="10" x2="29.5885" y2="9.75455" gradientUnits="userSpaceOnUse">
<stop stop-color="#4966FF"/>
<stop offset="0.154799" stop-color="#7760FF"/>
<stop offset="0.36383" stop-color="#B149FF"/>
<stop offset="0.622369" stop-color="#E54FF2"/>
<stop offset="0.963406" stop-color="#FF206E"/>
</linearGradient>
</defs>
</svg>
