<svg width="60" height="60" viewBox="0 0 60 60" fill="none" xmlns="http://www.w3.org/2000/svg">
<path opacity="0.2" d="M9.375 30C9.375 15.9169 19.9015 4.29234 33.5156 2.56523C32.3644 2.4191 31.191 2.34375 30 2.34375C14.7259 2.34375 2.34375 14.7259 2.34375 30C2.34375 45.2741 14.7259 57.6562 30 57.6562C31.191 57.6562 32.3644 57.5809 33.5156 57.4348C19.9015 55.7077 9.375 44.0831 9.375 30Z" fill="#E4E8F5"/>
<path d="M30 60C21.9867 60 14.4531 56.8794 8.78672 51.2133C3.12059 45.5469 0 38.0133 0 30C0 21.9867 3.12059 14.4531 8.78672 8.78672C14.4531 3.12059 21.9867 0 30 0C38.0133 0 45.5469 3.12059 51.2133 8.78672C56.8794 14.4531 60 21.9867 60 30C60 38.0133 56.8794 45.5469 51.2133 51.2133C45.5469 56.8794 38.0133 60 30 60ZM30 4.6875C16.0426 4.6875 4.6875 16.0426 4.6875 30C4.6875 43.9574 16.0426 55.3125 30 55.3125C43.9574 55.3125 55.3125 43.9574 55.3125 30C55.3125 16.0426 43.9574 4.6875 30 4.6875ZM41.7041 41.5152C41.5298 41.2411 37.3481 34.8047 29.883 34.8047C22.418 34.8047 18.2364 41.2411 18.062 41.5152C17.3671 42.6073 17.689 44.0558 18.7811 44.7507C19.8731 45.4458 21.3218 45.1239 22.0166 44.0317C22.0455 43.9863 24.9625 39.4922 29.883 39.4922C34.8036 39.4922 37.7205 43.9863 37.7495 44.0317C38.4444 45.1238 39.893 45.4457 40.985 44.7507C42.0772 44.0558 42.3991 42.6073 41.7041 41.5152Z" fill="#737DA5"/>
<path d="M19.6875 19.3359C21.3055 19.3359 22.6172 20.6476 22.6172 22.2656C22.6172 23.8836 21.3055 25.1953 19.6875 25.1953C18.0695 25.1953 16.7578 23.8836 16.7578 22.2656C16.7578 20.6476 18.0695 19.3359 19.6875 19.3359ZM37.2656 22.2656C37.2656 23.8836 38.5773 25.1953 40.1953 25.1953C41.8133 25.1953 43.125 23.8836 43.125 22.2656C43.125 20.6476 41.8133 19.3359 40.1953 19.3359C38.5773 19.3359 37.2656 20.6476 37.2656 22.2656Z" fill="#737DA5"/>
</svg>
