<svg width="21" height="19" viewBox="0 0 21 19" fill="none" xmlns="http://www.w3.org/2000/svg">
<path fill-rule="evenodd" clip-rule="evenodd" d="M5.26661 4.4C5.26661 3.07452 6.34113 2 7.66661 2C8.99209 2 10.0666 3.07452 10.0666 4.4C10.0666 5.72548 8.99209 6.8 7.66661 6.8C6.34113 6.8 5.26661 5.72548 5.26661 4.4ZM7.66661 0C5.23656 0 3.26661 1.96995 3.26661 4.4C3.26661 6.83005 5.23656 8.8 7.66661 8.8C10.0967 8.8 12.0666 6.83005 12.0666 4.4C12.0666 1.96995 10.0967 0 7.66661 0ZM14.5276 0.665375C14.0591 0.372935 13.4422 0.515665 13.1498 0.984171C12.8573 1.45268 13 2.06954 13.4685 2.36198C14.1503 2.7875 14.6002 3.5416 14.6002 4.40001C14.6002 5.25842 14.1503 6.01253 13.4685 6.43804C13 6.73048 12.8573 7.34735 13.1498 7.81586C13.4422 8.28436 14.0591 8.42709 14.5276 8.13465C15.77 7.35913 16.6002 5.97692 16.6002 4.40001C16.6002 2.82311 15.77 1.4409 14.5276 0.665375ZM7.66671 12.2C5.04984 12.2 2.83532 13.9338 2.11418 16.3177C2.06653 16.4752 2.09973 16.6087 2.21631 16.7364C2.34819 16.8809 2.58342 17 2.86671 17H12.4667C12.75 17 12.9852 16.8809 13.1171 16.7364C13.2337 16.6087 13.2669 16.4752 13.2192 16.3177C12.4981 13.9338 10.2836 12.2 7.66671 12.2ZM0.199853 15.7386C1.16912 12.5345 4.14398 10.2 7.66671 10.2C11.1894 10.2 14.1643 12.5345 15.1336 15.7386C15.4057 16.6383 15.1364 17.4908 14.5943 18.0847C14.0675 18.6618 13.288 19 12.4667 19H2.86671C2.04543 19 1.26589 18.6618 0.739115 18.0847C0.197035 17.4908 -0.0723301 16.6383 0.199853 15.7386ZM15.9334 10.6441C15.4126 10.46 14.8413 10.733 14.6573 11.2537C14.4732 11.7744 14.7461 12.3457 15.2669 12.5298C16.9974 13.1414 18.3521 14.5529 18.886 16.3177C18.9336 16.4752 18.9004 16.6087 18.7839 16.7364C18.652 16.8809 18.4168 17 18.1334 17H17.3001C16.7478 17 16.3001 17.4477 16.3001 18C16.3001 18.5523 16.7478 19 17.3001 19H18.1334C18.9547 19 19.7342 18.6618 20.261 18.0847C20.8031 17.4908 21.0725 16.6384 20.8003 15.7386C20.0814 13.3622 18.2617 11.467 15.9334 10.6441Z" fill="url(#paint0_linear)"/>
<defs>
<linearGradient id="paint0_linear" x1="2.87572" y1="9.5" x2="27.8228" y2="9.27307" gradientUnits="userSpaceOnUse">
<stop stop-color="#4966FF"/>
<stop offset="0.154799" stop-color="#7760FF"/>
<stop offset="0.36383" stop-color="#B149FF"/>
<stop offset="0.622369" stop-color="#E54FF2"/>
<stop offset="0.963406" stop-color="#FF206E"/>
</linearGradient>
</defs>
</svg>
