<svg width="18" height="26" viewBox="0 0 18 26" fill="none" xmlns="http://www.w3.org/2000/svg">
<path d="M0 4.00001C0 2.11439 0 1.17157 0.585787 0.585788C1.17157 1.65434e-06 2.11439 2.98565e-06 4.00001 5.64826e-06L9 1.27086e-05L14 5.64826e-06C15.8856 2.98565e-06 16.8284 1.65434e-06 17.4142 0.585788C18 1.17157 18 2.11439 18 4.00001V22C18 23.8856 18 24.8284 17.4142 25.4142C16.8284 26 15.8856 26 14 26H4C2.11438 26 1.17157 26 0.585786 25.4142C0 24.8284 0 23.8856 0 22V4.00001Z" fill="#737DA5"/>
<rect x="2" y="4" width="14" height="16" rx="1" fill="white"/>
<path d="M5 12H13" stroke="#A7AFCE" stroke-width="2" stroke-linecap="round" stroke-linejoin="round"/>
<path d="M7 16H11" stroke="#A7AFCE" stroke-width="2" stroke-linecap="round" stroke-linejoin="round"/>
<circle cx="9" cy="23" r="1.5" fill="white"/>
</svg>
