<svg width="188" height="115" viewBox="0 0 188 115" fill="none" xmlns="http://www.w3.org/2000/svg">
<mask id="mask0" mask-type="alpha" maskUnits="userSpaceOnUse" x="8" y="0" width="32" height="31">
<circle cx="24" cy="15.5" r="15.5" fill="#C5DFFF"/>
</mask>
<g mask="url(#mask0)">
<circle cx="24" cy="15.5" r="15.5" fill="#FFF9C6"/>
<circle opacity="0.8" cx="23.9999" cy="11.8529" r="5.47059" fill="#EBA67F"/>
<path opacity="0.8" d="M24 20.9706C19.5712 20.9706 15.6888 23.3095 13.5205 26.8195C11.5468 30.0146 14.7356 33.2794 18.4912 33.2794H29.5088C33.2644 33.2794 36.4532 30.0146 34.4795 26.8195C32.3112 23.3095 28.4287 20.9706 24 20.9706Z" fill="#EBA67F"/>
</g>
<mask id="mask1" mask-type="alpha" maskUnits="userSpaceOnUse" x="11" y="87" width="29" height="28">
<circle cx="25.5" cy="101" r="14" fill="#C5DFFF"/>
</mask>
<g mask="url(#mask1)">
<circle cx="25.5" cy="101" r="14" fill="#CBF4FF"/>
<circle opacity="0.8" cx="25.5" cy="97.7059" r="4.94118" fill="#64C9AB"/>
<path opacity="0.8" d="M25.5 105.941C21.7356 105.941 18.4082 107.812 16.3969 110.675C14.2379 113.748 17.4268 117.059 21.1823 117.059H29.8176C33.5732 117.059 36.7621 113.748 34.6031 110.675C32.5917 107.812 29.2643 105.941 25.5 105.941Z" fill="#64C9AB"/>
</g>
<mask id="mask2" mask-type="alpha" maskUnits="userSpaceOnUse" x="0" y="41" width="36" height="36">
<circle cx="18" cy="59" r="18" fill="#C5DFFF"/>
</mask>
<g mask="url(#mask2)">
<circle cx="18" cy="59" r="18" fill="#FFDAF9"/>
<circle opacity="0.87" cx="17.9999" cy="54.7647" r="6.35294" fill="#B099EF"/>
<path opacity="0.87" d="M17.9999 65.3529C12.4652 65.3529 7.66525 68.4985 5.29022 73.0995C3.56757 76.4366 6.75027 79.6471 10.5058 79.6471H25.4941C29.2496 79.6471 32.4323 76.4366 30.7096 73.0995C28.3346 68.4985 23.5346 65.3529 17.9999 65.3529Z" fill="#B099EF"/>
</g>
<rect x="51.5" y="7" width="75" height="7" rx="3.5" fill="#424D76"/>
<rect x="51.5" y="94" width="65" height="7" rx="3.5" fill="#424D76"/>
<rect x="47.5" y="49" width="103" height="9" rx="4.5" fill="#424D76"/>
<rect opacity="0.4" x="51.5" y="21" width="100.409" height="5" rx="2.5" fill="#A7AFCE"/>
<rect opacity="0.4" x="51.5" y="108" width="92.4091" height="5" rx="2.5" fill="#A7AFCE"/>
<rect opacity="0.4" x="47.5" y="65" width="140.409" height="5" rx="2.5" fill="#A7AFCE"/>
</svg>
