<svg width="16" height="16" viewBox="0 0 16 16" fill="none" xmlns="http://www.w3.org/2000/svg">
<rect width="16" height="16" rx="4" fill="url(#paint0_linear)"/>
<path d="M7.26624 3.84811C7.41886 3.38396 8.08174 3.38396 8.23385 3.84811L9.00662 6.20361C9.03988 6.30465 9.10452 6.39269 9.19133 6.45514C9.27813 6.51759 9.38264 6.55127 9.48992 6.55134H11.9903C12.4833 6.55134 12.6878 7.17625 12.2895 7.46351L10.2668 8.91894C10.1799 8.98151 10.1152 9.06973 10.082 9.17094C10.0489 9.27215 10.0489 9.38117 10.0821 9.48237L10.8543 11.8379C11.007 12.3025 10.4702 12.6886 10.0719 12.4013L8.04918 10.9459C7.96225 10.8833 7.85753 10.8495 7.75005 10.8495C7.64257 10.8495 7.53785 10.8833 7.45091 10.9459L5.42819 12.4013C5.02985 12.6886 4.49314 12.302 4.64576 11.8379L5.41801 9.48237C5.45122 9.38117 5.45124 9.27215 5.41807 9.17094C5.3849 9.06973 5.32023 8.98151 5.23334 8.91894L3.21062 7.46351C2.81177 7.17625 3.0173 6.55134 3.50976 6.55134H6.00967C6.11704 6.55137 6.22166 6.51775 6.30856 6.45529C6.39547 6.39283 6.46019 6.30473 6.49348 6.20361L7.26624 3.84811Z" fill="white"/>
<defs>
<linearGradient id="paint0_linear" x1="0.500003" y1="1.00001" x2="24.8925" y2="10.8014" gradientUnits="userSpaceOnUse">
<stop stop-color="#4966FF"/>
<stop offset="0.221346" stop-color="#7760FF"/>
<stop offset="0.453583" stop-color="#B149FF"/>
<stop offset="0.698841" stop-color="#E54FF2"/>
<stop offset="1" stop-color="#FF206E"/>
</linearGradient>
</defs>
</svg>
